<svg width="55" height="9" viewBox="0 0 55 9" fill="none" xmlns="http://www.w3.org/2000/svg">
<g clip-path="url(#clip0_3_597)">
<path d="M2.05824 2.94432C2.01847 2.78496 2.02841 2.6256 2.0483 2.53596C2.09802 2.28696 2.26706 2.01804 2.75431 2.01804C3.21172 2.01804 3.47026 2.29692 3.47026 2.7252C3.47026 2.86464 3.47026 3.20328 3.47026 3.20328H5.39935V2.65548C5.4093 0.96228 3.8879 0.693359 2.79408 0.693359C1.42184 0.693359 0.298192 1.15152 0.089372 2.41644C0.0297093 2.76504 0.0197655 3.0738 0.10926 3.46224C0.447348 5.04588 3.20178 5.50404 3.59953 6.51C3.67908 6.69924 3.64925 6.93828 3.61942 7.08768C3.55975 7.34664 3.38077 7.61556 2.86369 7.61556C2.37644 7.61556 2.08807 7.33668 2.08807 6.9084V6.1614H-0.00012207V6.759C-0.00012207 8.49204 1.36218 9.00996 2.81397 9.00996C4.21604 9.00996 5.35958 8.53188 5.54851 7.23708C5.638 6.56976 5.5684 6.13152 5.53857 5.97216C5.22037 4.32876 2.27701 3.85068 2.05824 2.94432ZM27.2459 2.95428C27.216 2.80488 27.226 2.63556 27.2359 2.55588C27.2956 2.30688 27.4547 2.03796 27.9419 2.03796C28.3894 2.03796 28.6479 2.31684 28.6479 2.73516C28.6479 2.8746 28.6479 3.21324 28.6479 3.21324H30.5571V2.6754C30.5571 1.00212 29.0656 0.743159 27.9817 0.743159C26.6194 0.743159 25.5057 1.19136 25.2969 2.44632C25.2472 2.78496 25.2273 3.09372 25.3168 3.48216C25.6449 5.04588 28.3695 5.50404 28.7673 6.50004C28.8369 6.68928 28.817 6.92832 28.7772 7.06776C28.7175 7.32672 28.5485 7.58568 28.0314 7.58568C27.5541 7.58568 27.2558 7.3068 27.2558 6.88848V6.14148H25.1974V6.72912C25.1974 8.44224 26.5398 8.96016 27.9817 8.96016C29.3639 8.96016 30.5074 8.48208 30.6864 7.2072C30.7759 6.53988 30.7063 6.1116 30.6765 5.95224C30.3682 4.33872 27.4646 3.86064 27.2459 2.95428ZM44.8265 7.18728L43.0068 0.942359H40.133V8.62152H42.0323L41.9229 2.1774L43.8818 8.62152H46.6362V0.942359H44.727L44.8265 7.18728ZM8.293 0.942359L6.85115 8.7012H8.93934L10.0232 1.52004L11.0773 8.7012H13.1555L11.7335 0.942359H8.293ZM19.9869 0.942359L19.0124 7.008L18.0379 0.942359H14.8758L14.7067 8.7012H16.6458L16.6955 1.52004L18.028 8.7012H19.9869L21.3194 1.52004L21.3691 8.7012H23.3081L23.1391 0.942359H19.9869ZM37.9851 0.942359H36.0262V6.67932C36.0262 6.77892 36.0262 6.88848 36.0063 6.97812C35.9666 7.16736 35.8075 7.54584 35.2605 7.54584C34.7236 7.54584 34.5645 7.17732 34.5247 6.97812C34.5048 6.89844 34.5048 6.77892 34.5048 6.67932V0.942359H32.5459V6.50004C32.5459 6.63948 32.5558 6.93828 32.5658 7.008C32.705 8.4522 33.8386 8.93028 35.2605 8.93028C36.6825 8.93028 37.826 8.46216 37.9653 7.008C37.9752 6.92832 37.9951 6.63948 37.9851 6.50004V0.942359ZM51.4291 4.33872V5.47416H52.2246V6.59964C52.2246 6.69924 52.2246 6.8088 52.2048 6.89844C52.1749 7.1076 51.9761 7.46616 51.4093 7.46616C50.8524 7.46616 50.6535 7.1076 50.6237 6.89844C50.6138 6.8088 50.6038 6.69924 50.6038 6.59964V3.05388C50.6038 2.9244 50.6138 2.79492 50.6436 2.68536C50.6834 2.49612 50.8524 2.1276 51.4093 2.1276C52.0059 2.1276 52.1451 2.51604 52.1849 2.68536C52.2048 2.79492 52.2048 2.98416 52.2048 2.98416V3.41244H54.1537V3.15348C54.1537 3.15348 54.1637 2.88456 54.1438 2.63556C53.9946 1.19136 52.7914 0.733199 51.4192 0.733199C50.047 0.733199 48.8736 1.20132 48.7045 2.64552C48.6847 2.775 48.6648 3.01404 48.6648 3.16344V6.42036C48.6648 6.5598 48.6648 6.66936 48.6946 6.92832C48.8239 8.34264 50.047 8.84064 51.4192 8.84064C52.8014 8.84064 54.0145 8.34264 54.1438 6.92832C54.1637 6.66936 54.1736 6.5598 54.1736 6.42036V4.33872H51.4291Z" fill="#1428A0"/>
</g>
<defs>
<clipPath id="clip0_3_597">
<rect width="54.1737" height="8.30664" fill="white" transform="translate(-0.00012207 0.693359)"/>
</clipPath>
</defs>
</svg>
